<?xml version="1.0" standalone="no"?>
<!DOCTYPE svg PUBLIC "-//W3C//DTD SVG 20010904//EN"
 "http://www.w3.org/TR/2001/REC-SVG-20010904/DTD/svg10.dtd">
<svg version="1.0" xmlns="http://www.w3.org/2000/svg"
 width="248.000000pt" height="120.000000pt" viewBox="0 0 248.000000 120.000000"
 preserveAspectRatio="xMidYMid meet">

<g transform="translate(0.000000,120.000000) scale(0.100000,-0.100000)"
fill="#000000" stroke="none">
<path d="M76 1163 c-11 -11 -6 -72 6 -79 9 -6 6 -10 -10 -14 -35 -8 -31 -25 5
-28 29 -3 33 -8 39 -40 3 -20 19 -66 34 -102 15 -36 31 -85 34 -110 4 -25 15
-65 26 -90 46 -112 70 -182 70 -209 0 -16 7 -34 15 -41 8 -7 15 -22 15 -34 0
-12 5 -27 11 -33 7 -7 14 -71 18 -159 5 -113 9 -148 20 -152 11 -4 13 21 9
152 -3 100 -9 161 -16 168 -7 7 -12 22 -12 34 0 12 -7 27 -15 34 -8 7 -15 24
-15 39 -1 23 -12 59 -35 114 -7 16 10 17 265 17 213 0 271 3 268 13 -4 9 -70
13 -276 15 l-271 2 -20 44 c-10 24 -22 63 -26 87 -4 24 -19 76 -35 114 -15 39
-31 85 -35 104 l-7 34 88 -6 c222 -16 264 -20 264 -28 0 -5 11 -9 25 -9 31 0
32 13 3 32 -22 15 -75 21 -283 34 -86 5 -102 9 -117 28 -10 11 -18 31 -18 43
0 23 -13 37 -24 26z"/>
<path d="M1116 1133 c-3 -3 -6 -23 -6 -44 l0 -38 -57 -6 c-81 -9 -95 -12 -118
-29 -19 -14 -19 -15 -2 -22 10 -3 28 -2 40 4 12 6 47 13 78 16 l56 6 5 -324
c3 -204 8 -330 15 -338 6 -7 13 -41 16 -76 3 -34 10 -68 15 -75 6 -7 14 -35
19 -62 10 -60 33 -74 33 -18 -1 21 -8 56 -16 78 -15 39 -25 92 -44 240 -5 39
-9 184 -9 323 -1 243 0 252 18 252 11 0 23 5 26 10 4 6 74 10 176 10 132 0
170 3 166 13 -4 14 -340 18 -369 3 -16 -7 -18 -3 -18 32 0 39 -10 59 -24 45z"/>
<path d="M2225 1059 c-10 -15 5 -238 16 -245 5 -3 10 -92 10 -197 2 -281 11
-430 27 -435 10 -3 11 58 6 315 -4 175 -10 323 -14 328 -5 6 -11 61 -15 123
-7 107 -15 136 -30 111z"/>
<path d="M1726 1033 c-11 -11 -7 -443 5 -464 5 -11 13 -73 16 -139 3 -66 10
-120 15 -120 4 0 8 -25 8 -56 0 -55 12 -94 30 -94 10 0 2 136 -10 165 -5 11
-11 69 -14 128 -3 59 -10 117 -16 127 -6 11 -10 109 -10 234 0 195 -5 238 -24
219z"/>
</g>
</svg>
