<svg version="1.1" id="Layer_1" xmlns="http://www.w3.org/2000/svg" xmlns:xlink="http://www.w3.org/1999/xlink" x="0px" y="0px"
	 width="100%" viewBox="0 0 200 200" enable-background="new 0 0 200 200" xml:space="preserve">
<path fill="none" opacity="1.000000" stroke="#000000" stroke-linecap="round" stroke-linejoin="round" stroke-width="2.000000"
	d="
M183.500000,130.500000 
	C128.500000,130.500000 73.500000,130.500000 18.500000,130.500000 
"/>
<path fill="none" opacity="1.000000" stroke="#000000" stroke-linecap="round" stroke-linejoin="round" stroke-width="6.000000"
	d="
M93.500000,74.000000 
	C93.500000,89.666664 93.500000,105.333336 93.500000,121.000000 
"/>
<path fill="none" opacity="1.000000" stroke="#000000" stroke-linecap="round" stroke-linejoin="round" stroke-width="5.000000"
	d="
M164.500000,85.500000 
	C162.530655,87.704567 164.153900,90.191872 164.097290,92.502380 
	C163.864609,101.999603 164.000000,111.505844 164.000000,121.521225 
	C161.528320,123.279922 158.077805,123.644554 154.500000,123.500000 
"/>
<path fill="none" opacity="1.000000" stroke="#000000" stroke-linecap="round" stroke-linejoin="round" stroke-width="5.000000"
	d="
M37.000000,74.000000 
	C37.000000,89.501793 37.000000,105.003586 37.000000,121.103401 
	C40.347614,123.604774 44.904140,123.637611 49.500000,123.500000 
"/>
<path fill="none" opacity="1.000000" stroke="#000000" stroke-linecap="round" stroke-linejoin="round" stroke-width="5.000000"
	d="
M135.500000,85.500000 
	C133.325165,87.512192 135.144409,89.862152 135.096222,92.002167 
	C134.876785,101.747223 135.000000,111.500000 135.000000,121.250000 
"/>
<path fill="none" opacity="1.000000" stroke="#000000" stroke-linecap="round" stroke-linejoin="round" stroke-width="2.000000"
	d="
M61.500004,81.500000 
	C61.333336,80.666664 61.178581,79.830750 60.998112,79.000412 
	C59.581165,72.480927 58.930027,71.719879 52.498508,71.560074 
	C47.624260,71.438950 42.585148,70.783127 38.019970,73.286415 
	C36.960327,73.867477 36.243507,73.487633 35.510551,72.984627 
	C33.046967,71.293945 30.258842,71.508400 27.500000,71.500000 
"/>
<path fill="none" opacity="1.000000" stroke="#000000" stroke-linecap="round" stroke-linejoin="round" stroke-width="2.000000"
	d="
M114.000000,73.000000 
	C107.500000,71.198189 100.951332,70.412514 94.544983,73.106956 
	C93.395439,73.590462 92.686081,73.298050 92.023987,72.953857 
	C87.846710,70.782280 83.353043,71.387459 79.003281,71.575821 
	C72.595985,71.853279 71.482132,73.171341 70.468811,79.495003 
	C70.253502,80.838623 71.469109,82.575607 69.500000,83.500000 
"/>
<path fill="none" opacity="1.000000" stroke="#000000" stroke-linecap="round" stroke-linejoin="round" stroke-width="3.000000"
	d="
M38.000000,97.000000 
	C43.492886,97.401466 49.026890,96.446007 54.500000,97.500000 
"/>
<path fill="none" opacity="1.000000" stroke="#000000" stroke-linecap="round" stroke-linejoin="round" stroke-width="2.000000"
	d="
M103.500000,123.500000 
	C103.333336,123.500000 103.153419,123.541893 103.001900,123.493980 
	C96.166367,121.332695 89.333336,123.334045 82.500000,123.500000 
"/>
<path fill="none" opacity="1.000000" stroke="#000000" stroke-linecap="round" stroke-linejoin="round" stroke-width="2.000000"
	d="
M124.500000,123.500000 
	C127.572189,123.433121 130.737137,123.937157 133.501678,122.002388 
	C134.491226,121.309860 135.504303,121.303009 136.499176,122.001167 
	C139.261276,123.939438 142.427811,123.433121 145.500000,123.500000 
"/>
<path fill="none" opacity="1.000000" stroke="#000000" stroke-linecap="round" stroke-linejoin="round" stroke-width="2.000000"
	d="
M116.000000,69.500000 
	C112.978065,74.064690 116.300735,78.855980 115.500000,83.500000 
"/>
<path fill="none" opacity="1.000000" stroke="#000000" stroke-linecap="round" stroke-linejoin="round" stroke-width="2.000000"
	d="
M163.000000,87.500000 
	C159.264587,85.465111 156.785782,89.399132 153.500000,89.500000 
"/>
<path fill="none" opacity="1.000000" stroke="#000000" stroke-linecap="round" stroke-linejoin="round" stroke-width="2.000000"
	d="
M174.500000,123.500000 
	C171.427811,123.433121 168.259720,123.941650 165.500000,122.000000 
"/>
<path fill="none" opacity="1.000000" stroke="#000000" stroke-linecap="round" stroke-linejoin="round" stroke-width="2.000000"
	d="
M35.500000,122.000000 
	C33.064167,123.731117 30.258842,123.491600 27.500000,123.500000 
"/>
<path fill="none" opacity="1.000000" stroke="#000000" stroke-linecap="round" stroke-linejoin="round" stroke-width="2.000000"
	d="
M134.000000,87.500000 
	C131.202057,85.598816 129.045120,88.505035 126.500000,88.500000 
"/>
<path fill="none" opacity="1.000000" stroke="#000000" stroke-linecap="round" stroke-linejoin="round" stroke-width="2.000000"
	d="
M56.500000,91.500000 
	C54.312397,95.833336 56.349628,100.166664 56.500000,104.500000 
"/>
</svg>