<?xml version="1.0" standalone="no"?>
<!DOCTYPE svg PUBLIC "-//W3C//DTD SVG 20010904//EN"
 "http://www.w3.org/TR/2001/REC-SVG-20010904/DTD/svg10.dtd">
<svg version="1.0" xmlns="http://www.w3.org/2000/svg"
 width="200.000000pt" height="200.000000pt" viewBox="0 0 200.000000 200.000000"
 preserveAspectRatio="xMidYMid meet">

<g transform="translate(0.000000,200.000000) scale(0.100000,-0.100000)"
fill="#000000" stroke="none">
<path d="M696 1279 c-12 -96 -12 -109 -4 -109 4 0 8 9 8 20 0 34 29 80 56 90
33 13 100 13 125 0 18 -10 19 -24 19 -245 0 -254 2 -244 -60 -256 -21 -4 10
-7 80 -7 70 0 103 3 84 7 -56 14 -54 6 -54 256 0 262 -2 255 73 255 76 0 115
-32 118 -98 1 -15 5 6 10 47 9 78 7 93 -13 73 -16 -16 -409 -17 -425 -1 -8 8
-13 0 -17 -32z"/>
<path d="M289 1290 c18 -4 38 -14 42 -22 11 -15 7 -463 -3 -473 -4 -4 -22 -11
-40 -15 -22 -5 8 -8 87 -8 77 0 105 3 78 7 -69 12 -73 19 -73 142 l0 109 63 0
c69 0 103 -16 110 -53 2 -12 5 12 5 53 2 66 0 72 -11 50 -14 -27 -51 -38 -119
-36 l-43 2 -3 104 c-1 58 2 112 8 120 7 11 28 15 84 15 84 0 109 -14 120 -67
10 -49 18 -26 10 31 l-7 51 -171 -1 c-109 -1 -159 -4 -137 -9z"/>
<path d="M1290 1144 c-36 -19 -54 -31 -40 -28 67 19 65 25 67 -146 2 -85 -1
-161 -6 -169 -5 -8 -26 -17 -47 -21 -27 -5 -2 -8 76 -8 76 0 102 3 77 8 -20 4
-41 10 -45 14 -4 4 -9 92 -12 196 l-5 188 -65 -34z"/>
<path d="M1570 1139 c-30 -16 -44 -27 -30 -24 69 18 65 26 68 -149 1 -90 -2
-164 -7 -169 -5 -5 -24 -13 -43 -17 -22 -5 2 -8 77 -8 74 0 98 3 72 8 -20 4
-41 10 -45 14 -4 4 -8 91 -10 192 -2 134 -6 184 -15 184 -7 -1 -37 -14 -67
-31z"/>
<path d="M583 703 c229 -2 605 -2 835 0 229 1 41 2 -418 2 -459 0 -647 -1
-417 -2z"/>
</g>
</svg>
