<svg version="1.1" id="Layer_1" xmlns="http://www.w3.org/2000/svg" xmlns:xlink="http://www.w3.org/1999/xlink" x="0px" y="0px"
	 width="100%" viewBox="0 0 258 258" enable-background="new 0 0 258 258" xml:space="preserve">
<path fill="none" opacity="1.000000" stroke="#000000" stroke-linecap="round" stroke-linejoin="round" stroke-width="3.000000"
	d="
M242.500000,76.000000 
	C167.500000,76.000000 92.500000,76.000000 17.500000,76.000000 
"/>
<path fill="none" opacity="1.000000" stroke="#000000" stroke-linecap="round" stroke-linejoin="round" stroke-width="3.000000"
	d="
M104.000000,164.500000 
	C103.424400,161.712204 105.292587,160.177795 106.988922,158.488876 
	C113.503113,152.003174 120.880577,146.361725 126.468269,138.975998 
	C129.386032,135.119339 132.144547,131.224609 132.580841,126.006760 
	C133.259109,117.894699 127.549500,110.953423 119.502228,110.463432 
	C113.784775,110.115280 108.630234,111.904861 103.500000,114.000000 
"/>
<path fill="none" opacity="1.000000" stroke="#000000" stroke-linecap="round" stroke-linejoin="round" stroke-width="10.000000"
	d="
M215.000000,113.000000 
	C213.283279,114.885887 213.287216,116.931099 213.344421,119.503464 
	C213.666794,133.996292 213.450958,148.500381 213.563309,162.999512 
	C213.577042,164.770920 212.227768,164.554306 211.500000,165.250000 
"/>
<path fill="none" opacity="1.000000" stroke="#000000" stroke-linecap="round" stroke-linejoin="round" stroke-width="10.000000"
	d="
M173.000000,109.500000 
	C169.471893,113.948997 169.365021,119.126564 169.443207,124.500824 
	C169.622589,136.831543 169.523453,149.166763 169.472977,161.499893 
	C169.465958,163.214386 169.316376,164.809052 171.500000,165.250000 
"/>
<path fill="none" opacity="1.000000" stroke="#000000" stroke-linecap="round" stroke-linejoin="round" stroke-width="3.000000"
	d="
M83.500000,107.500000 
	C82.277054,94.395546 81.645775,93.229820 68.985504,92.173775 
	C61.716316,91.567413 53.913506,90.618416 47.500000,96.000000 
"/>
<path fill="none" opacity="1.000000" stroke="#000000" stroke-linecap="round" stroke-linejoin="round" stroke-width="8.000000"
	d="
M142.500000,154.500000 
	C142.616226,158.277008 140.140778,160.956772 138.528381,164.014969 
	C137.900803,165.205292 136.965866,164.929504 136.001175,165.013458 
	C125.678108,165.911865 115.331978,165.502304 105.000771,165.412048 
	C101.329910,165.379974 98.735832,167.719009 95.500000,168.500000 
"/>
<path fill="none" opacity="1.000000" stroke="#000000" stroke-linecap="round" stroke-linejoin="round" stroke-width="12.000000"
	d="
M46.500000,96.500000 
	C46.500000,118.833336 46.500000,141.166672 46.500000,163.500000 
"/>
<path fill="none" opacity="1.000000" stroke="#000000" stroke-linecap="round" stroke-linejoin="round" stroke-width="4.000000"
	d="
M74.000000,130.000015 
	C65.000000,129.833344 56.000000,129.666672 47.000000,129.500015 
"/>
<path fill="none" opacity="1.000000" stroke="#000000" stroke-linecap="round" stroke-linejoin="round" stroke-width="2.000000"
	d="
M47.500000,164.000000 
	C52.637993,168.948029 59.131481,168.474075 65.500000,168.500000 
"/>
<path fill="none" opacity="1.000000" stroke="#000000" stroke-linecap="round" stroke-linejoin="round" stroke-width="2.000000"
	d="
M169.000000,116.500000 
	C165.410812,114.793869 161.972733,114.924156 158.466949,116.942596 
	C156.999023,117.787758 155.166672,118.000008 153.500000,118.500008 
"/>
<path fill="none" opacity="1.000000" stroke="#000000" stroke-linecap="round" stroke-linejoin="round" stroke-width="2.000000"
	d="
M212.500000,116.500000 
	C207.091461,114.102592 202.321075,116.491379 197.500000,118.500000 
"/>
<path fill="none" opacity="1.000000" stroke="#000000" stroke-linecap="round" stroke-linejoin="round" stroke-width="2.000000"
	d="
M168.500000,165.000000 
	C164.417328,168.502625 159.464996,168.526642 154.500000,168.500000 
"/>
<path fill="none" opacity="1.000000" stroke="#000000" stroke-linecap="round" stroke-linejoin="round" stroke-width="2.000000"
	d="
M214.500000,165.000000 
	C218.582672,168.502625 223.535004,168.526642 228.500000,168.500000 
"/>
<path fill="none" opacity="1.000000" stroke="#000000" stroke-linecap="round" stroke-linejoin="round" stroke-width="2.000000"
	d="
M44.500000,165.000000 
	C40.717567,168.212875 36.206390,168.718979 31.500000,168.500000 
"/>
<path fill="none" opacity="1.000000" stroke="#000000" stroke-linecap="round" stroke-linejoin="round" stroke-width="2.000000"
	d="
M172.500000,166.000000 
	C176.395370,169.110718 181.024628,168.405289 185.500000,168.500000 
"/>
<path fill="none" opacity="1.000000" stroke="#000000" stroke-linecap="round" stroke-linejoin="round" stroke-width="2.000000"
	d="
M210.500000,166.000000 
	C206.553467,168.844711 201.987488,168.468277 197.500000,168.500000 
"/>
<path fill="none" opacity="1.000000" stroke="#000000" stroke-linecap="round" stroke-linejoin="round" stroke-width="3.000000"
	d="
M102.500000,107.500000 
	C103.649635,114.870743 99.252632,120.854828 97.500000,127.500000 
"/>
<path fill="none" opacity="1.000000" stroke="#000000" stroke-linecap="round" stroke-linejoin="round" stroke-width="2.000000"
	d="
M44.500000,95.000000 
	C40.717567,91.787125 36.206390,91.281021 31.500000,91.500000 
"/>
<path fill="none" opacity="1.000000" stroke="#000000" stroke-linecap="round" stroke-linejoin="round" stroke-width="3.000000"
	d="
M77.500000,119.500000 
	C76.911034,122.567879 76.764877,125.751877 75.010468,128.506668 
	C74.400230,129.464859 74.434418,130.490234 74.996712,131.501831 
	C76.723816,134.608963 76.997444,138.083969 77.500000,141.500000 
"/>
</svg>